<svg width="664" height="664" viewBox="0 0 664 664" fill="none" xmlns="http://www.w3.org/2000/svg">
<path d="M371.546 628.31C482.739 628.31 572.879 619.668 572.879 609.007C572.879 598.347 482.739 589.705 371.546 589.705C260.352 589.705 170.212 598.347 170.212 609.007C170.212 619.668 260.352 628.31 371.546 628.31Z" fill="#4C5A6F"/>
<path opacity="0.25" d="M281.775 508.066C401.145 508.066 497.914 411.298 497.914 291.928C497.914 172.557 401.145 75.7889 281.775 75.7889C162.405 75.7889 65.6365 172.557 65.6365 291.928C65.6365 411.298 162.405 508.066 281.775 508.066Z" fill="#7E8391"/>
<path d="M432.975 84.505L452.859 91.9396L453.393 119.673L518.29 73.6951L432.975 84.505Z" fill="#E36C00"/>
<path d="M466.71 100.065L497.283 114.792L518.289 73.6951L466.71 100.065Z" fill="#FAB60C"/>
<path d="M452.859 91.9396L453.359 117.867L453.393 119.673L466.71 100.065L518.29 73.6951L452.859 91.9396Z" fill="#FF8D00"/>
<path d="M305.785 183.561C306.748 186.409 307.441 188.08 307.472 188.149L309.138 187.454C309.132 187.438 308.439 185.765 307.496 182.981L305.785 183.561ZM310.327 123.241L311.586 124.535C312.682 123.469 313.89 122.473 315.176 121.574L314.145 120.095C312.779 121.047 311.496 122.107 310.327 123.241ZM327.651 114.359L328.051 116.118C329.534 115.779 331.097 115.498 332.702 115.281L332.458 113.493C330.803 113.719 329.187 114.009 327.651 114.359ZM318.395 117.586L319.194 119.201C320.553 118.528 322.009 117.924 323.521 117.402L322.93 115.695C321.349 116.244 319.82 116.88 318.395 117.586ZM304.798 173.804L303.05 174.245C303.47 175.92 303.902 177.492 304.324 178.928L306.055 178.421C305.639 177.002 305.214 175.455 304.798 173.804ZM302.886 164.451L301.104 164.73C301.359 166.37 301.653 167.968 301.969 169.51L303.736 169.145C303.426 167.633 303.138 166.062 302.886 164.451ZM337.418 114.823C338.941 114.73 340.524 114.684 342.168 114.686V112.88C340.486 112.88 338.866 112.926 337.31 113.022L337.418 114.823ZM302.226 145.502L300.431 145.299C300.254 146.866 300.139 148.506 300.088 150.175L301.892 150.228C301.938 148.61 302.051 147.021 302.226 145.502ZM308.534 128.046L307.08 126.977C306.124 128.28 305.25 129.697 304.482 131.186L306.086 132.012C306.812 130.607 307.636 129.272 308.534 128.046ZM301.927 154.982L300.121 155.055C300.183 156.611 300.303 158.242 300.475 159.911L302.271 159.725C302.102 158.094 301.985 156.498 301.927 154.982ZM304.254 136.313L302.549 135.724C302.027 137.233 301.582 138.825 301.226 140.458L302.988 140.843C303.328 139.278 303.753 137.756 304.254 136.313ZM412.638 128.674C414.34 128.891 415.95 129.051 417.47 129.161L417.598 127.362C416.111 127.253 414.535 127.096 412.866 126.884L412.638 128.674ZM422.344 127.552L422.333 129.356C424.024 129.365 425.666 129.303 427.218 129.175L427.069 127.377C425.571 127.503 423.979 127.561 422.344 127.552ZM431.713 126.718L432.08 128.484C433.811 128.125 435.414 127.65 436.837 127.074L436.159 125.401C434.834 125.939 433.34 126.381 431.713 126.718ZM403.086 127.036C404.665 127.37 406.251 127.675 407.842 127.951L408.148 126.171C406.651 125.912 405.086 125.613 403.457 125.27L403.086 127.036ZM346.927 114.819C348.463 114.901 350.048 115.02 351.681 115.182L351.856 113.385C350.191 113.223 348.582 113.101 347.02 113.017L346.927 114.819ZM441.516 121.676C441.514 121.682 441.137 122.322 440.095 123.168L441.232 124.569C442.481 123.553 442.99 122.734 443.078 122.579L441.516 121.676ZM365.851 117.349C367.376 117.656 368.934 117.993 370.53 118.358L370.933 116.601C369.323 116.231 367.748 115.892 366.207 115.582L365.851 117.349ZM356.42 115.742C357.954 115.95 359.536 116.193 361.145 116.472L361.451 114.693C359.815 114.414 358.215 114.166 356.665 113.953L356.42 115.742ZM375.187 119.482C376.703 119.865 378.245 120.275 379.819 120.709L380.299 118.969C378.712 118.531 377.156 118.121 375.631 117.734L375.187 119.482ZM384.945 120.297L384.434 122.026C385.39 122.309 386.355 122.601 387.331 122.9L389.04 123.418L389.551 121.689L387.86 121.178C386.88 120.877 385.906 120.582 384.945 120.297ZM393.686 124.75C395.297 125.191 396.855 125.593 398.367 125.963L398.796 124.212C397.298 123.845 395.753 123.446 394.159 123.01L393.686 124.75Z" fill="#575E84"/>
<path opacity="0.2" d="M280.301 619.479C319.743 619.479 351.716 614.498 351.716 608.355C351.716 602.211 319.743 597.23 280.301 597.23C240.859 597.23 208.885 602.211 208.885 608.355C208.885 614.498 240.859 619.479 280.301 619.479Z" fill="#3E4268"/>
<path d="M388.354 172.011C388.354 172.011 434.422 146.903 445.199 167.142C455.975 187.381 591.197 453.485 598.042 487.628C604.888 521.771 499.744 570.037 499.744 570.037C499.744 570.037 428.74 631.108 406.509 558.422C384.281 485.736 433.691 212.387 388.354 172.011Z" fill="#4C5A6F"/>
<path opacity="0.05" d="M577.273 435.834C562.499 420.31 547.583 404.823 538.055 385.361C534.972 379.064 532.459 372.495 530.403 365.798C528.551 359.76 526.24 353.989 522.566 348.808C515.083 338.25 503.584 331.433 493.959 323.076C470.245 302.49 448.942 279.188 429.331 254.699C421.22 244.571 413.404 234.206 405.848 223.655C416.213 317.56 388.914 500.873 406.514 558.422C428.745 631.108 499.749 570.037 499.749 570.037C499.749 570.037 604.893 521.771 598.047 487.628C596.522 480.052 588.674 461.035 577.273 435.834Z" fill="#3E4268"/>
<path d="M487.635 489.718L515.662 529.407C515.662 529.407 466.56 587.102 442.439 551.359C424.236 524.39 487.635 489.718 487.635 489.718Z" fill="#BAC8E5"/>
<path opacity="0.2" d="M491.626 544.336C487.252 543.916 482.832 542.714 479.446 539.783C476.533 537.26 474.837 533.675 474.134 529.934C472.544 521.472 474.837 512.404 478.184 504.642C479.908 500.643 482.071 496.818 484.758 493.381C485.689 492.19 486.721 491.048 487.823 489.983L487.633 489.716C487.633 489.716 424.234 524.387 442.434 551.357C458.032 574.468 484.071 558.513 500.53 544.349C497.562 544.549 494.583 544.622 491.626 544.336Z" fill="#3E4268"/>
<path d="M392.698 155.352C421.649 157.286 568.944 478.594 568.944 478.594C568.944 478.594 406.198 456.799 411.127 542.579C416.056 628.359 499.744 570.037 499.744 570.037C499.744 570.037 456.757 624.251 415.177 589.559C415.177 589.559 248.294 313.846 243.21 270.434C238.126 227.022 282.685 147.999 392.698 155.352Z" fill="#7E8391"/>
<path d="M593.893 488.48C588.377 480.705 578.419 478.29 569.736 476.265C535.301 468.899 497.801 475.955 468.948 496.393C454.783 506.723 440.801 520.397 437.333 538.331C433.264 560.283 458.711 570.117 476.263 563.05C492.976 556.771 505.933 544.062 516.65 530.275L517.072 529.717C517.072 529.717 516.667 529.164 516.667 529.166C509.764 519.706 496.092 501.127 488.602 491.03C498.075 486.506 508.139 483.18 518.321 481.083C534.899 477.741 552.132 477.825 568.767 481.05C578.873 483.016 596.248 487.814 590.679 501.331C579.809 525.903 524.089 556.505 499.742 570.04C515.423 562.793 530.664 554.599 545.536 545.739C559.911 536.691 606.511 508.821 593.893 488.48ZM514.715 529.637C503.885 542.096 490.855 554.19 475.096 559.562C467.352 562.122 458.747 562.067 451.567 558.079C434.039 549.475 443.506 528.816 453.359 517.572C462.952 506.28 475.15 497.462 488.54 491.057C495.415 501.269 507.993 519.81 514.715 529.637Z" fill="#F1F2FF"/>
<path d="M390.315 204.24C381.661 209.8 372.98 215.298 364.277 220.729C362.958 218.591 361.637 216.457 360.311 214.328C363.447 207.398 366.544 200.431 369.598 193.421C364.282 196.867 358.958 200.287 353.622 203.684C352.283 201.57 350.94 199.459 349.592 197.354C358.219 191.821 366.822 186.221 375.399 180.562C376.767 182.695 378.133 184.831 379.492 186.974C376.447 194.028 373.352 201.061 370.207 208.071C375.576 204.658 380.935 201.219 386.284 197.757C387.632 199.91 388.976 202.073 390.315 204.24ZM398.672 229.593C396.691 226.276 394.704 222.967 392.703 219.669C390.943 220.778 389.182 221.884 387.418 222.989C389.179 225.897 390.935 228.814 392.681 231.738C391.036 232.756 389.394 233.774 387.747 234.788C386.005 231.871 384.255 228.96 382.497 226.059C380.585 227.251 378.67 228.441 376.754 229.627C378.735 232.898 380.705 236.18 382.668 239.474C380.957 240.521 379.246 241.565 377.533 242.606C374.291 237.163 371.019 231.739 367.717 226.333C376.437 220.924 385.136 215.453 393.81 209.915C397.165 215.39 400.489 220.885 403.783 226.397C402.081 227.469 400.379 228.533 398.672 229.593ZM406.063 230.227C407.462 232.585 408.855 234.947 410.244 237.311C404.644 242.555 399.012 247.763 393.347 252.935C400.691 250.676 408.033 248.398 415.37 246.103C416.784 248.546 418.194 250.994 419.599 253.449C414.095 258.903 408.555 264.32 402.979 269.701C410.175 267.211 417.368 264.699 424.555 262.167C425.918 264.582 427.277 267.003 428.632 269.429C418.429 272.304 408.218 275.148 398.004 277.964C396.496 275.284 394.98 272.608 393.458 269.936C398.472 265.047 403.456 260.127 408.411 255.177C401.744 257.176 395.078 259.164 388.407 261.136C386.871 258.48 385.33 255.833 383.783 253.19C391.26 245.625 398.686 237.969 406.063 230.227ZM409.604 299.57C406.375 293.627 406.678 287.375 411.968 284.03C413.287 286.414 414.602 288.802 415.912 291.195C413.962 292.581 413.701 294.488 414.732 296.383C415.806 298.355 417.446 299.074 419.013 298.18C423.993 295.31 413.741 283.01 423.22 277.545C428.262 274.566 433.47 277.207 436.673 283.072C440.004 289.174 439.32 295.002 434.349 298.225C433.028 295.763 431.701 293.304 430.367 290.85C432.018 289.734 432.355 287.859 431.394 286.009C430.54 284.356 429.068 283.594 427.393 284.573C422.764 287.264 432.346 299.86 423.331 304.995C418.811 307.563 413.11 306.024 409.604 299.57ZM448.618 306.29C441.341 310.458 434.048 314.583 426.742 318.667C428.309 321.65 429.867 324.643 431.419 327.64C429.721 328.578 428.026 329.514 426.328 330.448C423.605 325.181 420.854 319.927 418.074 314.69C427.061 309.656 436.027 304.559 444.973 299.395C446.193 301.691 447.408 303.988 448.618 306.29ZM459.236 340.198C457.467 336.663 455.688 333.138 453.897 329.623C452.071 330.639 450.243 331.653 448.415 332.664C449.993 335.765 451.562 338.872 453.123 341.989C451.418 342.921 449.714 343.852 448.008 344.78C446.452 341.67 444.887 338.569 443.313 335.477C441.328 336.568 439.345 337.657 437.357 338.742C439.13 342.23 440.892 345.729 442.645 349.237C440.872 350.194 439.099 351.148 437.324 352.099C434.424 346.289 431.496 340.504 428.541 334.747C437.585 329.798 446.606 324.785 455.61 319.705C458.614 325.533 461.591 331.389 464.537 337.272C462.77 338.253 461.002 339.227 459.236 340.198ZM466.551 341.309C470.256 348.755 473.917 356.245 477.531 363.777C475.752 364.733 473.971 365.686 472.188 366.636C470.953 364.062 469.716 361.495 468.47 358.932C461.147 362.876 453.803 366.781 446.438 370.647C445.31 368.315 444.176 365.985 443.036 363.657C450.378 359.771 457.709 355.842 465.026 351.871C463.771 349.317 462.509 346.767 461.245 344.222C463.012 343.253 464.782 342.283 466.551 341.309ZM478.992 366.822C482.593 374.368 486.15 381.955 489.658 389.584C487.863 390.521 486.07 391.452 484.275 392.384C483.078 389.777 481.874 387.174 480.665 384.578C473.279 388.442 465.88 392.262 458.468 396.041C457.372 393.677 456.27 391.317 455.165 388.962C462.562 385.16 469.946 381.315 477.317 377.429C476.097 374.839 474.873 372.256 473.642 369.678C475.426 368.726 477.208 367.776 478.992 366.822ZM494.589 415.261C492.965 411.591 491.331 407.931 489.687 404.279C487.821 405.233 485.953 406.186 484.085 407.136C485.536 410.359 486.977 413.587 488.408 416.819C486.666 417.694 484.924 418.568 483.182 419.438C481.756 416.213 480.32 412.993 478.875 409.777C476.847 410.801 474.82 411.822 472.79 412.84C474.417 416.463 476.035 420.097 477.642 423.74C475.831 424.637 474.019 425.531 472.208 426.423C469.555 420.4 466.867 414.392 464.145 408.4C473.383 403.756 482.604 399.046 491.807 394.272C494.569 400.328 497.303 406.408 500.008 412.517C498.202 413.433 496.395 414.349 494.589 415.261ZM507.898 430.626C511.072 438.023 508.682 443.689 503.817 446.051C500.304 447.76 496.132 447.295 492.894 443.295C490.18 447.399 487.456 451.485 484.716 455.55C483.567 452.806 482.409 450.064 481.25 447.33C483.895 443.568 486.528 439.789 489.151 435.996C488.901 435.414 488.649 434.831 488.399 434.252C484.886 435.976 481.371 437.691 477.854 439.395C476.814 436.981 475.769 434.57 474.72 432.162C484.018 427.616 493.299 423.003 502.564 418.324C504.357 422.415 506.134 426.514 507.898 430.626ZM502.073 432.997C501.422 431.483 500.771 429.969 500.118 428.459C497.816 429.606 495.512 430.746 493.208 431.883C493.859 433.391 494.507 434.898 495.154 436.407C496.327 439.143 498.184 439.785 500.373 438.711C502.444 437.698 503.25 435.741 502.073 432.997ZM315.112 212.721C317.768 213.308 368.542 301.336 368.542 301.336C368.542 301.336 332.281 320.732 321.068 339.658C321.068 339.658 270.744 264.476 270.784 257.586C270.824 250.693 292.151 207.653 315.112 212.721ZM380.68 323.434C380.68 323.434 336.779 350.123 338.352 360.756C339.926 371.391 358.354 412.902 362.352 414.473C366.349 416.045 407.189 382.789 410.078 379.042C412.968 375.297 380.68 323.434 380.68 323.434ZM418.924 399.498L446.328 458.91L435.666 463.954C435.666 463.954 408.502 414.307 409.203 410.376C409.903 406.445 418.924 399.498 418.924 399.498ZM397.754 412.888L412.149 444.065L401.466 447.702C401.466 447.702 391.747 419.442 391.959 418.223C392.17 417.003 397.754 412.888 397.754 412.888ZM369.934 429.927C369.934 429.927 395.509 491.986 400.505 490.262C405.5 488.538 407.931 479.961 407.931 479.961C407.931 479.961 385.229 428.762 379.255 426.069C373.281 423.373 369.934 429.927 369.934 429.927Z" fill="#BAC8E5"/>
<path d="M262.298 589.223C262.298 589.223 262.061 579.911 263.17 572.184C263.533 569.654 273.57 570.994 273.681 572.649C274.11 579.099 272.72 589.296 270.64 591.566C268.559 593.84 263.537 593.525 262.298 589.223Z" fill="#EFD9D3"/>
<path d="M239.332 600.491L237.867 600.765C237.867 600.765 237.338 602.848 237.989 603.802C238.639 604.756 244.753 607.086 256.665 606.765C268.575 606.447 274.039 604.167 273.783 601.721C273.526 599.275 244.449 606.232 239.332 600.491Z" fill="#575E84"/>
<path d="M273.783 601.723C258.017 607.66 234.346 603.021 238.25 600.112C239.109 599.473 240.607 598.928 242.424 598.408C248.885 596.575 259.405 595.128 259.686 591.372C260.047 586.56 262.249 585.867 262.756 586.046C262.884 586.095 263.236 586.257 263.721 586.447C265.14 587.003 267.716 587.786 269.301 586.536C271.432 584.86 271.744 584.67 272.683 585.779C275.427 589.032 275.352 591.775 273.783 601.723Z" fill="#3E4268"/>
<path d="M263.769 585.274C263.555 586.398 263.128 587.675 262.625 588.72C261.361 591.336 263.055 592.817 259.283 597.489C255.516 602.159 242.015 598.72 242.422 598.408C248.883 596.575 259.451 593.957 259.732 590.201C260.093 585.389 262.295 584.696 262.802 584.876C262.933 584.92 263.283 585.084 263.769 585.274Z" fill="#575E84"/>
<path d="M311.208 269.878C311.022 271.826 310.836 273.845 310.655 275.936C305.487 333.403 302.386 423.304 282.955 540.706C280.808 553.745 278.435 567.131 275.854 580.845C275.091 584.946 261.311 581.199 261.311 581.199C262.594 520.049 239.644 381.085 228.044 315.303C224.662 296.031 222.241 283.032 221.685 280.113C221.654 279.903 221.618 279.695 221.579 279.486L311.208 269.878Z" fill="#3E4268"/>
<path opacity="0.2" d="M311.208 269.878C311.022 271.826 310.836 273.845 310.655 275.936C305.487 333.403 302.386 423.304 282.955 540.706C281.133 533.123 279.312 525.543 277.508 517.942C272.18 495.643 266.926 473.324 261.689 450.984C259.082 439.913 256.455 428.827 253.867 417.756C251.317 406.811 250.036 395.6 249.171 384.396C248.325 373.336 247.876 362.25 246.959 351.194C246.581 346.705 245.968 342.226 245.751 337.733C245.567 333.888 245.472 329.968 244.571 326.214C243.83 323.067 242.475 319.915 239.731 318.005C237.354 316.372 234.436 315.526 231.588 315.289C230.452 315.172 229.246 315.185 228.044 315.303C227.83 315.327 227.595 315.349 227.38 315.373C224.319 296.022 222.17 283.07 221.685 280.115C221.654 279.906 221.618 279.697 221.579 279.489L311.208 269.878Z" fill="#3E4268"/>
<path d="M299.11 594.021C299.11 594.021 293.076 574.519 295.777 572.986C298.477 571.452 305.004 570.507 306.6 571.737C308.193 572.968 308.988 594.068 306.615 596.963C304.243 599.858 300.9 599.158 299.11 594.021Z" fill="#EFD9D3"/>
<path d="M278.51 605.98C278.51 605.98 278.415 608.892 281.023 610.132C287.494 613.206 308.623 609.218 309.614 607.237C310.608 605.256 310.181 602.784 310.181 602.784L278.51 605.98Z" fill="#3E4268"/>
<path d="M299.823 589.026C299.823 589.026 305.305 589.023 307.766 588.056C310.006 587.175 311.901 601.414 310.073 603.87C308.242 606.327 291.899 607.894 291.899 607.894C291.899 607.894 295.916 601.13 296.819 595.502C297.722 589.871 294.767 590.194 299.823 589.026Z" fill="#3E4268"/>
<path d="M278.51 605.98C278.51 605.98 284.924 610.504 294.444 607.576C297.45 606.65 300.075 592.193 298.579 589.327C297.082 586.46 294.446 589.415 294.446 589.415C294.446 589.415 295.887 603.288 278.51 605.98Z" fill="#575E84"/>
<path d="M295.263 606.635C295.263 606.635 290.757 602.12 285.376 602.133C279.995 602.146 278.508 605.982 278.508 605.982C278.508 605.982 283.154 612.33 295.263 606.635ZM317.97 272.07C317.958 273.059 317.945 274.048 317.934 275.075C317.91 276.282 317.903 277.541 317.899 278.8C317.883 281.102 317.868 283.442 317.872 285.834C317.877 286.715 317.879 287.614 317.883 288.515C317.89 290.223 317.894 291.932 317.919 293.694C317.952 299.504 318.045 305.579 318.164 311.927C318.983 358.961 321.013 420.19 316.923 496.068C315.502 522.65 313.313 551.032 310.072 581.239C309.634 585.387 295.039 584.338 295.039 584.338C291.649 526.251 259.71 400.726 241.652 333.465C234.868 308.16 230.045 291.102 229.436 288.993C229.396 288.831 229.376 288.76 229.376 288.76L317.97 272.07Z" fill="#575E84"/>
<path d="M293.752 325.96C281.182 320.285 264.806 305.938 261.375 309.869C257.944 313.8 258.349 316.033 258.349 316.033C258.349 316.033 289.081 332.611 292.043 331.883C295.004 331.152 293.752 325.96 293.752 325.96Z" fill="#3E4268"/>
<path opacity="0.2" d="M317.97 272.07C317.959 273.059 317.945 274.048 317.934 275.075C317.91 276.282 317.903 277.541 317.899 278.8C317.883 281.102 317.868 283.442 317.872 285.834C317.877 286.715 317.879 287.614 317.883 288.515C317.906 290.206 317.912 291.932 317.919 293.694C317.985 299.411 318.063 305.509 318.165 311.927C318.983 358.961 321.013 420.19 316.923 496.068C316.358 495.074 315.812 494.062 315.303 493.049C310.422 483.166 308.494 471.936 309.145 460.967C309.566 453.871 311.033 446.91 311.184 439.765C311.319 432.747 310.358 425.775 307.966 419.141C305.498 412.313 301.48 406.151 298.568 399.513C296.053 393.783 294.433 387.814 294.048 381.548C293.738 376.231 294.349 371.001 294.922 365.716C295.378 361.495 295.761 357.278 295.98 353.027C296.445 344.041 296.343 334.654 293.758 325.958C291.427 318.171 286.706 311.111 278.743 308.317C273.971 306.635 268.424 306.321 263.484 307.321C258.491 308.324 254.093 310.931 250.678 314.701C245.966 319.886 243.323 326.588 241.656 333.465C241.411 334.461 241.203 335.473 240.992 336.484C234.525 309.428 229.999 291.228 229.441 288.993C229.401 288.831 229.381 288.76 229.381 288.76L317.97 272.07Z" fill="#3E4268"/>
<path d="M325.227 285.713C319.24 297.118 218.761 305.584 218.002 289.249C215.928 244.536 224.961 107.209 276.735 104.503C316 102.449 347.155 243.945 325.227 285.713Z" fill="#505F98"/>
<path d="M330.895 158.267C330.895 158.267 363.068 217.332 346.083 231.873C336.002 240.505 312.007 180.849 312.007 180.849L330.895 158.267Z" fill="#EBC0B8"/>
<path d="M289.641 108.94C289.641 108.94 338.025 144.688 347.15 177C339.592 182.505 325.183 187.573 313.888 188.917C280.314 135.215 289.641 108.94 289.641 108.94Z" fill="#505F98"/>
<path d="M278.189 46.9691C278.189 46.9691 286.985 42.662 290.788 50.1253C294.59 57.5887 291.051 60.9795 291.051 60.9795C291.051 60.9795 294.769 62.1725 292.873 69.6824C290.974 77.1944 283.74 77.46 283.74 77.46C283.74 77.46 289.068 89.3921 277.587 89.8126C266.105 90.2332 249.345 61.8361 278.189 46.9691Z" fill="#3E4268"/>
<path d="M261.279 91.9175C261.279 91.9175 261.08 119.67 265.921 119.031C269.717 118.528 281.775 105.082 281.775 105.082L276.828 75.2245L261.279 91.9175Z" fill="#EFD9D3"/>
<path opacity="0.1" d="M272.342 82.4068C272.86 83.5179 272.8 84.9787 272.74 86.1717C272.57 89.5869 271.698 92.9489 269.274 95.4766C268.026 96.778 266.594 97.8869 265.363 99.206C264.042 100.62 263.123 102.247 262.486 104.069C262.408 104.292 262.36 104.522 262.287 104.746L261.28 91.9175L270.08 82.4688C270.854 81.9575 271.83 81.3157 272.342 82.4068Z" fill="#231F20"/>
<path d="M245.085 79.6623L248.055 80.2931C248.055 80.2931 247.843 80.842 247.572 81.7362C246.57 85.1514 244.868 93.6196 251.481 97.0746C257.667 100.302 267.734 93.1548 272.552 89.2239C274.254 87.8317 275.303 86.8401 275.303 86.8401L277.497 76.256C277.497 76.256 282.083 73.0577 280.653 68.786C279.236 64.5142 276.755 67.0397 276.755 67.0397C276.755 67.0397 266.952 46.8895 250.476 55.8092C250.476 55.8092 248.201 63.6001 248.006 70.2822C248.011 70.2778 244.492 77.0417 245.085 79.6623Z" fill="#EFD9D3"/>
<path d="M255.374 61.5462C252.811 61.1854 250.868 63.0977 250.775 63.1907C250.649 63.3174 250.578 63.4889 250.578 63.6676C250.578 63.8464 250.649 64.0178 250.775 64.1446C250.902 64.2709 251.074 64.3419 251.253 64.3424C251.432 64.3428 251.604 64.2725 251.731 64.1468C251.811 64.0671 253.699 62.2367 255.934 63.0822C256.282 63.2194 256.674 63.0402 256.806 62.6905C256.838 62.6075 256.853 62.5191 256.851 62.4303C256.848 62.3415 256.828 62.2541 256.792 62.1731C256.755 62.0921 256.703 62.0191 256.638 61.9582C256.574 61.8973 256.498 61.8498 256.415 61.8184C256.08 61.6874 255.731 61.596 255.374 61.5462Z" fill="#3E4268"/>
<path d="M276.753 67.0286C276.753 67.0286 274.391 74.1157 271.888 74.4388C269.385 74.7642 267.355 63.5669 265.445 60.891C265.445 60.891 248.112 64.1247 244.35 51.7389C240.585 39.3553 250.518 43.1556 250.518 43.1556C250.518 43.1556 251.694 32.7883 257.384 36.4868C265.157 41.5398 268.313 37.9786 272.893 38.3947C277.472 38.8108 281.585 44.1582 280.425 49.4569C280.425 49.4569 286.447 61.0836 276.753 67.0286Z" fill="#3E4268"/>
<path d="M279.163 71.2074C279.274 71.2051 279.38 71.1343 279.42 71.0237C280.531 68.0556 278.119 67.064 278.094 67.0551C277.948 66.9976 277.787 67.0684 277.729 67.2123C277.671 67.3584 277.742 67.5222 277.886 67.5797C277.966 67.6129 279.803 68.3876 278.891 70.8267C278.875 70.87 278.869 70.9166 278.875 70.9625C278.881 71.0083 278.899 71.052 278.926 71.0896C278.952 71.1272 278.988 71.1577 279.03 71.1782C279.071 71.1987 279.117 71.2088 279.163 71.2074Z" fill="#3E4268"/>
<path d="M253.292 79.2727C253.805 80.9859 255.963 81.8557 258.11 81.2116C260.257 80.5675 261.583 78.6574 261.069 76.9443C260.556 75.2312 258.398 74.3636 256.251 75.0076C254.102 75.6473 252.778 77.5574 253.292 79.2727Z" fill="#E5C9C3"/>
<path d="M247.537 88.8786C247.568 90.2221 248.96 91.2823 250.644 91.2425C252.329 91.2026 253.67 90.0805 253.639 88.737C253.608 87.3913 252.216 86.3333 250.532 86.3731C248.847 86.413 247.506 87.5329 247.537 88.8786ZM250.673 68.3234C250.7 69.3791 251.468 70.2158 252.393 70.1937C253.309 70.1715 254.037 69.2995 254.011 68.2415C254.006 68.0556 253.975 67.8807 253.918 67.7147C253.754 67.8785 253.528 67.9892 253.28 67.9958C253.161 67.9989 253.043 67.9785 252.931 67.9356C252.82 67.8928 252.718 67.8284 252.632 67.7462C252.546 67.6639 252.476 67.5654 252.428 67.4563C252.38 67.3472 252.354 67.2297 252.351 67.1105C252.344 66.8294 252.462 66.5793 252.659 66.4066C252.54 66.3814 252.419 66.3695 252.298 66.3712C251.375 66.3956 250.647 67.2676 250.673 68.3234Z" fill="#3E4268"/>
<path d="M204.574 171.507C204.574 171.507 204.747 162.642 207.179 162.251C209.612 161.859 208.954 171.401 208.954 171.401L204.574 171.507Z" fill="#EBC0B8"/>
<path d="M205.245 157.277C206.491 169.831 207.668 181.681 208.777 192.881C208.835 193.452 209.337 193.97 209.904 194.047C228.469 196.517 249.503 197.52 273.57 196.737C274.407 196.708 275.131 196.126 275.179 195.431C276.12 181.666 277.127 166.907 278.212 151.047C278.243 150.586 278.057 150.175 277.731 149.894L277.727 149.889C277.441 149.639 277.054 149.489 276.614 149.489C249.662 149.679 226.234 151.95 206.208 155.834C205.937 155.885 205.705 156.049 205.537 156.266C205.499 156.31 205.466 156.359 205.439 156.405C205.433 156.416 205.431 156.421 205.431 156.421C205.281 156.68 205.217 156.979 205.245 157.277Z" fill="#4C5A6F"/>
<path d="M205.433 156.421C205.433 156.421 239.965 198.563 277.734 149.894L277.729 149.889C277.444 149.639 277.056 149.489 276.616 149.489C249.664 149.679 226.236 151.95 206.21 155.834C205.94 155.885 205.707 156.049 205.539 156.266C205.488 156.337 205.459 156.383 205.442 156.405C205.435 156.416 205.433 156.421 205.433 156.421Z" fill="#4C5A6F"/>
<path d="M206.207 155.834C205.895 155.881 205.596 156.104 205.413 156.401L205.397 156.423L205.41 156.441C209.251 161.089 213.961 165.088 219.321 168.271C233.04 176.54 250.045 176.252 264.812 163.758C269.686 159.882 273.873 154.993 277.76 149.909L277.778 149.885C277.472 149.619 277.043 149.473 276.611 149.486C277.032 149.495 277.426 149.652 277.705 149.916L277.7 149.874C260.529 171.296 240.076 179.218 219.651 167.602C214.27 164.601 209.487 160.777 205.448 156.399V156.438C205.448 156.438 205.466 156.41 205.457 156.423C205.632 156.124 205.9 155.903 206.207 155.834Z" fill="#9AACCC"/>
<path d="M248.642 173.233C248.642 173.233 239.419 166.097 228.106 173.41C228.108 173.41 236.267 181.48 248.642 173.233Z" fill="#BAC8E5"/>
<path d="M272.935 195.176C263.907 183.1 250.076 169.092 237.701 169.28C231.366 169.661 225.902 173.572 221.3 178.005C216.88 182.332 213.055 187.343 209.833 192.786C213.33 187.728 217.292 182.981 221.769 178.855C226.3 174.771 231.685 170.98 237.734 170.683C249.617 170.511 263.486 184.187 272.935 195.176Z" fill="#9AACCC"/>
<path d="M204.574 171.507C204.574 171.507 221.426 168.293 222.38 171.363C222.825 172.797 218.826 174.094 214.408 175.115C219.857 174.063 225.961 173.603 225.7 175.325C225.499 176.651 219.007 178.085 214.649 179.276C217.71 178.733 224.611 177.746 225.003 179.045C225.503 180.699 219.151 182.545 214.915 183.271C217.467 183.012 222.015 182.704 222.19 183.932C222.345 185.019 221.229 186.163 215.897 187.058C212.785 187.58 212.985 188.158 211.524 188.118C210.397 188.087 209.224 188.18 208.328 187.706C204.016 185.431 202.418 173.096 204.574 171.507Z" fill="#EFD9D3"/>
<path opacity="0.2" d="M221.794 184.185C221.614 183.629 219.775 183.519 219.611 183.647C219.611 183.647 219.795 185.132 219.943 185.371C220.087 185.61 221.973 184.738 221.794 184.185ZM224.821 179.196C224.642 178.64 222.803 178.53 222.637 178.658C222.637 178.658 222.823 180.143 222.969 180.382C223.117 180.621 225.001 179.751 224.821 179.196ZM225.207 175.121C225.027 174.566 223.188 174.455 223.024 174.583C223.024 174.583 223.21 176.071 223.356 176.308C223.502 176.547 225.386 175.677 225.207 175.121ZM221.769 171.263C221.59 170.708 219.751 170.597 219.587 170.725C219.587 170.725 219.771 172.213 219.919 172.45C220.065 172.689 221.951 171.819 221.769 171.263Z" fill="white"/>
<path d="M207.593 185.564C207.628 185.559 207.662 185.546 207.688 185.519C207.757 185.455 207.761 185.347 207.697 185.278C205.107 182.469 206.123 179.588 206.134 179.559C206.15 179.515 206.148 179.464 206.126 179.422C204.809 176.865 206.046 174.444 206.057 174.42C206.101 174.335 206.068 174.234 205.986 174.189C205.946 174.168 205.9 174.164 205.856 174.177C205.813 174.191 205.777 174.22 205.756 174.26C205.701 174.364 204.443 176.825 205.791 179.515C205.645 180.002 204.953 182.801 207.447 185.508C207.487 185.55 207.54 185.568 207.593 185.564ZM211.081 175.865C213.277 175.608 216.03 174.898 216.167 174.862C216.209 174.849 216.244 174.82 216.266 174.782C216.287 174.744 216.293 174.699 216.281 174.656C216.27 174.614 216.243 174.577 216.206 174.554C216.169 174.531 216.124 174.523 216.081 174.532C216.041 174.543 212.11 175.557 209.921 175.615C209.876 175.616 209.833 175.635 209.802 175.668C209.771 175.701 209.754 175.744 209.755 175.79C209.757 175.835 209.776 175.878 209.809 175.909C209.841 175.94 209.885 175.957 209.93 175.956C210.28 175.945 210.67 175.911 211.081 175.865ZM212.23 179.82C214.182 179.592 216.221 179.136 216.247 179.129C216.338 179.11 216.398 179.017 216.376 178.926C216.371 178.904 216.363 178.883 216.35 178.864C216.337 178.845 216.321 178.829 216.302 178.817C216.283 178.805 216.261 178.797 216.239 178.794C216.217 178.791 216.194 178.792 216.172 178.797C216.139 178.806 212.825 179.548 210.632 179.603C210.535 179.605 210.464 179.683 210.466 179.778C210.468 179.873 210.548 179.946 210.641 179.944C211.132 179.931 211.677 179.886 212.23 179.82ZM212.909 183.815C214.8 183.594 216.692 183.153 216.716 183.149C216.809 183.127 216.865 183.036 216.843 182.943C216.838 182.921 216.828 182.9 216.815 182.882C216.802 182.864 216.785 182.849 216.766 182.837C216.747 182.825 216.726 182.817 216.703 182.814C216.681 182.81 216.659 182.811 216.637 182.817C216.606 182.824 213.534 183.538 211.34 183.594C211.295 183.595 211.252 183.614 211.221 183.647C211.19 183.68 211.173 183.723 211.174 183.769C211.175 183.814 211.194 183.857 211.227 183.888C211.26 183.919 211.304 183.936 211.349 183.935C211.843 183.924 212.376 183.877 212.909 183.815Z" fill="#EBC0B8"/>
<path d="M340.218 208.295C325.108 192.558 283.386 178.578 283.386 178.578L276.188 188.149C276.188 188.149 314.067 234.385 334.182 234.585C359.022 234.828 346.8 215.149 340.218 208.295Z" fill="#EFD9D3"/>
<path d="M280.664 172.912C282.266 174.723 283.616 177.264 283.386 178.578C283.506 179.428 288.86 184.716 290.489 186.276L284.407 195.586L276.323 188.41C276.323 188.41 274.208 187.62 270.737 185.916C267.267 184.211 254.002 177.319 255.348 176.024C256.693 174.729 264.017 178.649 264.017 178.649C264.017 178.649 253.358 170.564 254.949 169.24C256.541 167.915 265.97 174.716 265.97 174.716C265.97 174.716 254.577 165.491 255.306 163.379C256.034 161.268 268.159 171.624 268.159 171.624C268.159 171.624 259.254 160.991 260.746 159.588C262.236 158.185 271.189 168.955 273.515 170.77C275.024 171.947 276.775 171.527 276.284 169.581C275.795 167.636 277.749 164.165 279.223 164.422C280.697 164.681 279.061 171.104 280.664 172.912Z" fill="#EFD9D3"/>
<g opacity="0.5">
<path d="M279.604 167.764C279.604 167.764 278.761 167.879 278.493 167.571C278.225 167.264 279.07 164.884 279.407 164.975C279.745 165.068 279.816 167.651 279.604 167.764ZM262.694 160.681C262.694 160.681 262.083 161.396 261.578 161.525C261.074 161.653 260.728 160.152 260.974 159.86C261.224 159.568 262.207 159.847 262.694 160.681ZM257.34 164.05C257.338 164.402 256.992 165.037 256.488 165.166C255.983 165.294 255.319 163.725 255.567 163.43C255.813 163.138 257.342 163.53 257.34 164.05ZM256.888 169.964C256.886 170.316 256.618 170.816 256.114 170.945C255.609 171.073 254.868 169.637 255.115 169.344C255.361 169.052 256.891 169.444 256.888 169.964ZM257.207 176.378C257.205 176.728 257.169 177.27 256.665 177.399C256.16 177.527 255.306 176.299 255.554 176.007C255.799 175.714 257.212 175.858 257.207 176.378Z" fill="white"/>
</g>
<path d="M142.66 414.951C141.233 414.872 139.885 414.504 138.648 413.853C135.235 412.114 133.132 408.449 133.349 404.546L136.476 348.166C136.777 342.737 141.445 338.567 146.881 338.868L203.248 341.995C208.684 342.296 212.861 346.958 212.56 352.387L209.432 408.767C209.308 411.007 208.469 413.066 207.006 414.719C205.063 416.999 202.133 418.249 199.027 418.077L142.66 414.951Z" fill="#BAC8E5"/>
<path d="M207.44 352.104L204.313 408.484C204.251 409.584 203.837 410.564 203.166 411.321C202.245 412.402 200.849 413.041 199.313 412.957L142.946 409.83C142.255 409.792 141.609 409.615 141.036 409.312C139.424 408.491 138.364 406.762 138.473 404.83L141.6 348.449C141.744 345.838 143.975 343.844 146.6 343.987L202.967 347.115C205.59 347.263 207.584 349.492 207.44 352.104Z" fill="#888AA3"/>
<path d="M155.684 386.922L149.205 374.109C148.152 372.024 145.234 371.862 143.955 373.819L139.843 380.111L138.47 404.832C138.364 406.764 139.422 408.493 141.034 409.314C141.607 409.615 142.253 409.792 142.944 409.832L167.972 411.22L155.684 386.922ZM200.3 385.89L194.66 394.516L183.182 412.063L199.313 412.957C200.849 413.043 202.245 412.402 203.166 411.321C203.837 410.562 204.251 409.584 204.313 408.484L205.55 386.182C204.494 384.097 201.579 383.936 200.3 385.89Z" fill="#D3DAEA"/>
<path d="M194.658 394.516L177.868 361.302C176.814 359.217 173.897 359.056 172.618 361.01L155.682 386.919L141.034 409.312C141.607 409.613 142.253 409.79 142.944 409.83L199.311 412.957C200.847 413.043 202.243 412.401 203.164 411.321L194.658 394.516Z" fill="#BAC8E5"/>
<path d="M200.13 358.35C199.917 362.194 196.626 365.138 192.784 364.923C188.939 364.711 185.995 361.422 186.21 357.577C186.425 353.733 189.714 350.789 193.556 351.004C197.398 351.216 200.342 354.505 200.13 358.35Z" fill="#D3DAEA"/>
<path d="M295.232 470.668C295.232 470.668 269.473 479.483 283.468 514.18C283.468 514.18 314.833 496.4 295.232 470.668Z" fill="#E1E6F4"/>
<g opacity="0.52">
<path d="M283.933 513.186L287.583 502.706C288.78 499.211 289.973 495.716 291.076 492.194C291.636 490.437 292.178 488.675 292.678 486.902C293.194 485.134 293.667 483.354 294.099 481.566C294.519 479.775 294.907 477.976 295.159 476.157C295.423 474.342 295.564 472.494 295.23 470.668C295.502 471.551 295.677 472.48 295.704 473.412C295.761 474.344 295.737 475.278 295.681 476.21C295.549 478.071 295.268 479.915 294.913 481.741C294.203 485.395 293.198 488.976 292.094 492.518C290.965 496.052 289.725 499.547 288.362 502.993C287.014 506.446 285.542 509.848 283.933 513.186Z" fill="white"/>
</g>
<path d="M200.169 566.549C200.169 566.549 207.595 592.742 242.991 580.624C242.991 580.622 226.913 548.351 200.169 566.549Z" fill="#F1F2FF"/>
<g opacity="0.52">
<path d="M242.024 580.104L231.754 575.898C228.327 574.515 224.901 573.138 221.444 571.848C219.72 571.193 217.989 570.56 216.245 569.964C214.507 569.356 212.755 568.787 210.99 568.26C209.224 567.744 207.449 567.262 205.645 566.912C203.848 566.551 202.009 566.312 200.167 566.547C201.064 566.323 202.002 566.197 202.934 566.222C203.868 566.213 204.8 566.29 205.727 566.392C207.577 566.624 209.406 567.003 211.21 567.454C214.82 568.357 218.343 569.555 221.818 570.847C225.286 572.164 228.71 573.59 232.079 575.135C235.457 576.666 238.777 578.317 242.024 580.104Z" fill="white"/>
</g>
<path d="M347.779 548.386C347.779 548.386 318.408 537.369 305.449 578.481C305.451 578.481 346.375 585.635 347.779 548.386Z" fill="#F1F2FF"/>
<g opacity="0.52">
<path d="M306.593 577.939L317.516 571.288C321.142 569.057 324.76 566.819 328.319 564.495C330.106 563.342 331.878 562.171 333.62 560.96C335.375 559.765 337.1 558.528 338.793 557.253C340.477 555.967 342.139 554.65 343.698 553.218C345.262 551.797 346.739 550.255 347.779 548.386C347.374 549.371 346.849 550.328 346.19 551.175C345.559 552.047 344.851 552.86 344.123 553.65C342.642 555.208 341.042 556.644 339.388 558.01C336.082 560.741 332.565 563.189 328.988 565.531C325.396 567.848 321.732 570.051 317.996 572.118C314.269 574.198 310.469 576.148 306.593 577.939Z" fill="white"/>
</g>
<path d="M248.473 556.286L218.587 521.709L209.558 533.646L248.473 556.286ZM319.406 536.932L338.932 519.531L332.024 514.469L319.406 536.932Z" fill="#D3DAEA"/>
<path d="M256.377 526.488C256.377 529.128 254.237 531.269 251.596 531.269C248.956 531.269 246.815 529.128 246.815 526.488C246.815 523.847 248.956 521.707 251.596 521.707C254.237 521.709 256.377 523.85 256.377 526.488ZM296.985 544.082C296.985 546.89 294.708 549.166 291.901 549.166C289.095 549.166 286.817 546.89 286.817 544.082C286.817 541.273 289.095 538.998 291.901 538.998C294.708 538.998 296.985 541.275 296.985 544.082Z" fill="#F1F2FF"/>
<path fill-rule="evenodd" clip-rule="evenodd" d="M191.852 176.814C191.852 176.814 186.887 202.615 210.468 207.223C210.466 207.223 181.923 211.298 191.852 176.814Z" fill="#BAC8E5"/>
</svg>
